<svg width="187" height="52" viewBox="0 0 187 52" fill="none" xmlns="http://www.w3.org/2000/svg">
<path d="M85.4111 43.6389V35.4653H86.1091V39.2729H90.8051V35.4653H91.5032V43.6389H90.8051V39.8313H86.1091V43.6389H85.4111Z" fill="#333333"/>
<path d="M109.426 43.7648C108.166 43.7648 107.239 43.4095 106.647 42.6987C106.055 41.988 105.758 40.9515 105.758 39.5892C105.758 38.1254 106.055 37.0508 106.647 36.3654C107.239 35.6801 108.166 35.3374 109.426 35.3374C110.687 35.3374 111.614 35.6801 112.206 36.3654C112.798 37.0508 113.094 38.1254 113.094 39.5892C113.094 40.9515 112.798 41.988 112.206 42.6987C111.614 43.4095 110.687 43.7648 109.426 43.7648ZM109.426 43.1683C110.433 43.1683 111.178 42.8806 111.66 42.3053C112.151 41.7299 112.396 40.8245 112.396 39.5892C112.396 38.6923 112.286 37.9773 112.066 37.4443C111.855 36.9112 111.529 36.5304 111.089 36.302C110.649 36.0651 110.095 35.9466 109.426 35.9466C108.758 35.9466 108.199 36.0651 107.751 36.302C107.311 36.5304 106.981 36.9112 106.761 37.4443C106.549 37.9773 106.444 38.6923 106.444 39.5892C106.444 40.8245 106.689 41.7299 107.18 42.3053C107.671 42.8806 108.419 43.1683 109.426 43.1683Z" fill="#333333"/>
<path d="M130.677 43.7658C129.568 43.7658 128.735 43.5035 128.176 42.9789C127.626 42.4459 127.351 41.6801 127.351 40.6817V35.4653H128.05V40.7579C128.05 41.5701 128.278 42.1751 128.735 42.5728C129.2 42.962 129.848 43.1566 130.677 43.1566C131.506 43.1566 132.149 42.962 132.606 42.5728C133.063 42.1751 133.291 41.5701 133.291 40.7579V35.4653H133.989V40.6817C133.989 41.6801 133.714 42.4459 133.164 42.9789C132.614 43.5035 131.785 43.7658 130.677 43.7658Z" fill="#333333"/>
<path d="M150.819 43.7648C149.837 43.7648 149.046 43.6464 148.446 43.4095V42.7875C149.148 43.0414 149.922 43.1683 150.768 43.1683C151.564 43.1683 152.164 43.0456 152.57 42.8002C152.977 42.5549 153.18 42.1403 153.18 41.5564C153.18 41.2011 153.099 40.9134 152.939 40.6934C152.778 40.4734 152.52 40.2915 152.164 40.1476C151.817 39.9953 151.348 39.8557 150.756 39.7288C150.129 39.585 149.63 39.42 149.258 39.2338C148.894 39.0392 148.632 38.8023 148.471 38.5231C148.319 38.2438 148.243 37.9139 148.243 37.5331C148.243 36.8731 148.479 36.3443 148.953 35.9466C149.436 35.5405 150.176 35.3374 151.174 35.3374C151.631 35.3374 152.059 35.3712 152.456 35.4389C152.854 35.5066 153.159 35.5743 153.37 35.642V36.2639C152.761 36.0524 152.075 35.9466 151.314 35.9466C150.544 35.9466 149.952 36.0735 149.537 36.3274C149.131 36.5727 148.928 36.9747 148.928 37.5331C148.928 37.8462 148.996 38.1042 149.131 38.3073C149.275 38.5019 149.516 38.6669 149.854 38.8023C150.193 38.9377 150.658 39.0773 151.251 39.2211C151.919 39.3734 152.439 39.5596 152.812 39.7796C153.192 39.9911 153.463 40.2449 153.624 40.5411C153.785 40.8288 153.865 41.1672 153.865 41.5564C153.865 42.2841 153.607 42.8341 153.091 43.2064C152.575 43.5787 151.817 43.7648 150.819 43.7648Z" fill="#333333"/>
<path d="M168.119 43.6389V35.4653H173.462V36.0365H168.817V39.2729H173.018V39.8313H168.817V43.0805H173.462V43.6389H168.119Z" fill="#333333"/>
<path d="M82.4458 24.621V27.2142H78.7537C76.9956 27.2142 75.2375 25.8077 74.5782 25.1044C71.8004 22.7837 72.0436 18.8338 72.5124 17.149C73.8486 12.824 77.853 11.2427 79.6258 11.0815H88.0718V15.2704H80.4063C78.7537 15.2704 77.3472 16.5336 76.9077 17.149C75.2903 18.8719 76.0873 20.885 76.688 21.6761C78.7274 24.2078 82.0795 22.731 83.5007 21.6761H86.1378L90.3134 27.2142H86.6653L84.4237 24.621H82.4458Z" fill="#3400FF"/>
<path fill-rule="evenodd" clip-rule="evenodd" d="M91.9798 27.2362H95.921V21.2136L100.925 27.2362H104.778L99.6852 20.4607H103.228C104.158 19.8851 106.062 18.2466 106.239 16.2981C106.328 14.8219 105.717 11.728 102.564 11.1611H92.6883L91.9798 11.914V27.2362ZM96.0095 20.3724H100.039V16.6083H102.475C102.545 16.5818 102.624 16.5577 102.709 16.5319C103.283 16.3569 104.113 16.104 104.113 14.4827C104.113 13.5527 103.042 12.853 101.944 12.7113H96.0095V20.3724Z" fill="#3400FF"/>
<path d="M111.705 27.1869H107.824V12.1039L108.766 11.1157H114.29C115.463 11.1157 116.448 12.7131 116.75 13.3966L123.52 27.2148H119.424L115.327 18.4336H118.13L117.093 16.4159C116.547 15.245 115.955 15.4233 115.61 15.245H111.705V27.1869Z" fill="#3400FF"/>
<path d="M129.01 27.2148H124.986V11.7453L125.861 11.1157H130.498L134.829 17.4564L139.116 11.1157H142.31L143.053 11.7453V27.2148H139.116V19.1203H141.61C141.68 18.6167 141.376 17.5614 141.216 17.0967C140.306 15.0101 139.832 15.3231 139.116 15.3231L136.398 19.1203H131.416L129.01 15.6127V27.2148Z" fill="#3400FF"/>
<path d="M150.407 27.2148H146.295V11.8107L147.345 11.1157H149.794L150.407 11.6076V27.2148Z" fill="#3400FF"/>
<path d="M158.5 26.544C155.735 25.5781 154.111 22.1168 153.644 20.5069C152.769 13.1062 158.384 11.548 160.206 11.1157H168.562V15.2971H158.5C156.82 15.1898 154.869 16.8029 155.175 19.0311H157.407C157.442 22.1078 159.958 23.2348 161.213 23.4137C163.382 23.7714 164.946 21.4162 165.456 20.1938H169.218C169.218 23.6641 166.331 25.8733 164.887 26.544C162.193 27.6173 159.506 26.9912 158.5 26.544Z" fill="#3400FF"/>
<path d="M171.84 27.1286V11.1157H175.69V18.4659H178.534V15.2283C181.299 15.1583 182.166 12.4574 182.253 11.1157H186.278V12.2095C186.138 16.2346 181.786 18.4659 179.628 19.0784L185.884 27.1286H181.684L175.69 19.3409V27.1286H171.84Z" fill="#3400FF"/>
<path d="M45.5155 19.2661H32.6051V10.3479C32.6051 7.5533 30.7649 6.62725 29.6932 6.30536H22.7967C21.089 6.65566 19.7754 8.01307 19.5565 10.3479V19.2661H12.6381C8.52209 19.7918 6.52578 23.6013 6.52578 25.8783V32.1398C12.7694 32.9061 17.8488 35.7477 19.5565 42.1452C19.5565 43.7435 20.8263 44.7944 21.921 45.1447H29.321C31.5709 45.3349 32.3494 43.1758 32.6051 42.1452V32.1398L34.7069 32.4026C44.2087 34.5043 45.899 42.7141 45.5155 45.3698H37.5408C34.6196 51.2174 30.7816 51.4749 29.7589 51.7127H22.4464C21.1169 51.7127 18.9938 51.0598 16.9292 49.0632C14.8646 47.0667 14.8821 45.4617 13.689 45.1447H6.52578C4.27472 45.1447 0.0273477 42.9553 0.027354 38.8393L0.0273567 25.8783C0.0273567 24.4514 -0.560455 20.2909 3.71341 19.2661C5.91674 19.0037 6.3765 17.1646 6.52578 16.3983V8.80124C6.52578 7.37433 9.07221 6.46391 9.96706 6.30536H16.9292C18.418 5.95507 19.3375 4.68524 19.5565 3.72192V3.06511V1.75149C19.5565 0.229459 21.3385 0 22.4464 0H29.7589C32.1111 0.190254 32.392 1.19658 32.6051 1.75149V3.72192C32.6051 5.33908 34.4144 6.43672 34.9258 6.43672C43.0264 7.92549 45.8288 15.0847 45.5155 19.2661Z" fill="#3400FF"/>
<path d="M19.4699 19.2627C18.9467 27.9656 27.1108 32.271 32.537 32.271V19.2627H19.4699Z" fill="#3400FF"/>
<circle cx="45.6092" cy="27.2554" r="4.83254" fill="#3400FF"/>
</svg>
